<svg width="28" height="28" fill="none" xmlns="http://www.w3.org/2000/svg"><path d="M21.593 2.858H6.408a4.524 4.524 0 0 0-4.525 4.524v13.04a4.72 4.72 0 0 0 4.531 4.715c.063.002.126.005.19.005h.083c1.678 0 7.092-2.95 7.314-3.07.22.12 5.634 3.07 7.313 3.07h.084c.063 0 .126-.003.189-.005a4.72 4.72 0 0 0 4.53-4.715V7.382a4.524 4.524 0 0 0-4.523-4.524h-.002ZM8.453 21.685c-.223.081-.445.148-.666.2-.375.09-.747.14-1.1.14h-.084c-.884 0-1.604-.719-1.604-1.603v-4.89c1.443-.373 2.989-1.217 4.224-1.983.462 2.052 2.616 6.119 2.732 6.26a11.704 11.704 0 0 1-3.503 1.876ZM23 20.422c0 .884-.72 1.604-1.604 1.604h-.083c-.354 0-.725-.05-1.1-.14a6.198 6.198 0 0 1-.666-.2 11.692 11.692 0 0 1-3.503-1.876c.116-.142 2.27-4.209 2.732-6.261 1.236.766 2.78 1.61 4.224 1.982v4.891Zm0-7.968c-1.353-.447-5.34-2.561-6.325-3.454-.076 1.155-.076 1.693-.162 2.732-.136 1.656-1.234 4.205-2.514 5.9-1.28-1.695-2.378-4.244-2.514-5.9-.086-1.039-.086-1.577-.162-2.732-.985.893-4.972 3.007-6.325 3.454V7.382c0-.777.63-1.408 1.409-1.408h15.184c.778 0 1.409.63 1.409 1.408v5.072Z" fill="#000"/></svg>